<?xml version="1.0" standalone="no"?>
<!DOCTYPE svg PUBLIC "-//W3C//DTD SVG 20010904//EN"
 "http://www.w3.org/TR/2001/REC-SVG-20010904/DTD/svg10.dtd">
<svg version="1.0" xmlns="http://www.w3.org/2000/svg"
 width="603.000000pt" height="160.000000pt" viewBox="0 0 603.000000 160.000000"
 preserveAspectRatio="xMidYMid meet">

<g transform="translate(0.000000,160.000000) scale(0.100000,-0.100000)"
fill="#000000" stroke="none">
<path d="M100 795 l0 -685 968 2 967 3 0 680 0 680 -967 3 -968 2 0 -685z
m1718 8 l-3 -438 -750 0 -750 0 -3 425 c-1 234 0 431 3 438 3 9 164 12 755 12
l750 0 -2 -437z"/>
<path d="M527 1123 c-4 -3 -7 -152 -7 -330 l0 -323 545 0 545 0 -2 328 -3 327
-536 3 c-294 1 -539 -1 -542 -5z"/>
<path d="M5390 790 l0 -370 59 0 59 0 4 168 c5 186 14 219 70 248 41 21 106
13 130 -16 16 -20 18 -46 18 -211 l0 -189 66 0 65 0 -3 213 c-3 204 -4 214
-27 251 -29 47 -72 66 -146 66 -61 0 -86 -9 -127 -47 -14 -14 -31 -22 -37 -19
-7 5 -11 56 -11 142 l0 134 -60 0 -60 0 0 -370z"/>
<path d="M5085 1065 c-5 -2 -27 -6 -47 -10 -37 -6 -38 -7 -38 -48 0 -52 -13
-67 -57 -67 -32 0 -33 -1 -33 -45 l0 -45 39 0 c26 0 41 -5 45 -16 3 -9 6 -81
6 -160 0 -159 9 -196 54 -232 47 -37 176 -41 221 -8 16 12 17 16 3 57 -10 28
-20 43 -29 40 -68 -19 -102 -11 -118 27 -7 17 -11 75 -9 157 l3 130 73 3 72 3
0 44 0 44 -72 3 -73 3 -3 63 c-3 60 -8 67 -37 57z"/>
<path d="M2493 930 c-17 -10 -37 -28 -43 -40 -14 -27 -30 -16 -30 21 0 29 0
29 -60 29 l-60 0 0 -260 0 -260 64 0 65 0 3 185 c3 184 3 185 29 211 16 16 41
28 67 31 34 5 44 1 66 -20 l26 -26 0 -191 0 -190 65 0 65 0 0 168 c0 139 3
173 18 202 30 61 109 80 150 37 21 -22 22 -32 22 -215 l0 -192 65 0 65 0 0
198 c0 108 -5 213 -10 233 -5 19 -23 48 -40 64 -26 25 -40 30 -95 33 -78 5
-115 -8 -154 -55 l-29 -35 -22 31 c-12 17 -34 38 -50 46 -42 22 -138 19 -177
-5z"/>
<path d="M3850 918 c-74 -38 -83 -58 -46 -103 l24 -29 38 26 c94 65 219 49
200 -25 -7 -29 -37 -43 -129 -63 -134 -28 -184 -78 -175 -176 3 -27 14 -62 25
-76 57 -79 202 -83 261 -7 l21 27 35 -37 c33 -34 37 -36 93 -33 52 3 58 5 61
27 6 43 -6 71 -32 71 -13 0 -27 7 -30 16 -3 9 -6 79 -6 157 0 157 -10 192 -63
231 -23 17 -47 22 -120 24 -88 4 -95 2 -157 -30z m218 -298 c-6 -81 -37 -115
-104 -115 -53 0 -74 20 -74 72 0 43 27 69 81 78 24 4 51 11 59 16 36 20 43 11
38 -51z"/>
<path d="M3169 918 c203 -522 203 -521 186 -556 -20 -43 -73 -66 -132 -57 -48
7 -52 4 -56 -60 -2 -38 -1 -39 38 -47 57 -11 130 0 166 25 64 44 87 88 204
395 63 167 115 308 115 313 0 6 -27 9 -62 7 l-62 -3 -60 -174 c-34 -96 -66
-176 -72 -178 -10 -3 -134 320 -134 348 0 5 -31 9 -70 9 -68 0 -69 0 -61 -22z"/>
<path d="M4352 728 c3 -183 6 -218 21 -246 32 -59 139 -89 214 -61 15 5 45 27
66 47 l37 36 0 -42 0 -42 60 0 60 0 0 260 0 260 -59 0 -59 0 -4 -167 c-5 -209
-16 -237 -106 -256 -31 -7 -80 11 -92 33 -6 10 -10 102 -10 204 l0 186 -66 0
-65 0 3 -212z"/>
</g>
</svg>
