<?xml version="1.0" standalone="no"?>
<!DOCTYPE svg PUBLIC "-//W3C//DTD SVG 20010904//EN"
 "http://www.w3.org/TR/2001/REC-SVG-20010904/DTD/svg10.dtd">
<svg version="1.0" xmlns="http://www.w3.org/2000/svg"
 width="1080.000000pt" height="1080.000000pt" viewBox="0 0 1080.000000 1080.000000"
 preserveAspectRatio="xMidYMid meet">

<g transform="translate(0.000000,1080.000000) scale(0.100000,-0.100000)"
fill="#000000" stroke="none">
<path d="M2930 5170 l0 -1740 2470 0 2470 0 0 1740 0 1740 -2470 0 -2470 0 0
-1740z m4390 10 l0 -1120 -1920 0 -1920 0 0 1120 0 1120 1920 0 1920 0 0
-1120z"/>
<path d="M4010 5170 l0 -840 1390 0 1390 0 0 840 0 840 -1390 0 -1390 0 0
-840z"/>
</g>
</svg>
